<svg width="26" height="26" viewBox="0 0 26 26" fill="none" xmlns="http://www.w3.org/2000/svg">
<path d="M13.3416 14.9432C14.4922 14.9432 15.425 14.0104 15.425 12.8598C15.425 11.7092 14.4922 10.7765 13.3416 10.7765C12.191 10.7765 11.2583 11.7092 11.2583 12.8598C11.2583 14.0104 12.191 14.9432 13.3416 14.9432Z" stroke="black"/>
<path d="M21.675 19.1098H5.0083V22.2348H21.675V19.1098Z" stroke="black"/>
<path d="M6.35204 19.1098C4.74658 17.2871 3.91123 14.9124 4.02196 12.4859C4.1327 10.0594 5.18087 7.77069 6.94568 6.10174C8.7105 4.4328 11.0542 3.51397 13.483 3.53879C15.9119 3.56361 18.2363 4.53016 19.9666 6.23483L12.3 11.0369" stroke="black"/>
<path d="M20.1126 19.1098L20.1439 16.7036L12.6543 14.8286" stroke="black"/>
<path d="M20.144 16.7036C21.0128 15.1638 21.3344 13.3751 21.0563 11.6291C20.7782 9.88307 19.9169 8.28276 18.6128 7.089" stroke="black"/>
</svg>
